<?xml version="1.0" ?><!DOCTYPE svg  PUBLIC '-//W3C//DTD SVG 1.1//EN'  'http://www.w3.org/Graphics/SVG/1.1/DTD/svg11.dtd'><svg enable-background="new 0 0 65 65" id="Layer_1" version="1.1" viewBox="0 0 65 65" xml:space="preserve" xmlns="http://www.w3.org/2000/svg" xmlns:xlink="http://www.w3.org/1999/xlink"><g><rect height="1.5" width="1.5" x="40.2" y="41.1"/><rect height="1.5" width="1.5" x="36.9" y="41.1"/><rect height="1.5" width="1.4" x="33.7" y="41.1"/><rect height="1.5" width="6.9" x="23.5" y="41.1"/><rect height="1.5" width="1.5" x="36.9" y="29.7"/><rect height="1.5" width="1.5" x="40.2" y="29.7"/><rect height="1.5" width="1.4" x="33.7" y="29.7"/><rect height="1.5" width="6.9" x="23.5" y="29.7"/><rect height="1.5" width="1.4" x="52" y="41.1"/><rect height="1.5" width="1.5" x="55.2" y="41.1"/><rect height="1.5" width="1.5" x="58.5" y="41.1"/><path d="M65.3,34.6v-8h-8.7c1.2-1.9,1.8-4,1.8-6.2c0-6.4-5.2-11.7-11.7-11.7c-0.7,0-1.7,0.2-2.4,0.3c-1.4-4.9-6-8.4-11.2-8.4   c-5,0-9.4,3.2-11,7.8C21.3,8.1,20.6,8,19.8,8c-5.9,0-7.3,5.1-7.6,6.8c-3.5,1-6,4.2-6,7.9c0,1.4,0.3,2.7,1,3.9h-7.5v8H3v3.3h-3.3v8   h8.5v11.6c-1.6,0.3-2.8,1.8-2.8,3.4c0,1.9,1.6,3.5,3.5,3.5c1.7,0,3.1-1.2,3.4-2.8h16.5c0.3,1.6,1.8,2.8,3.4,2.8   c1.7,0,3.1-1.2,3.4-2.8h16.8c0.3,1.6,1.8,2.8,3.4,2.8c1.9,0,3.5-1.6,3.5-3.5c0-1.7-1.2-3.1-2.8-3.4V45.9h8.5v-8H62v-3.3H65.3z    M63.8,33.1H48.3v-5h15.4V33.1z M1.3,28h14.9v5H1.3V28z M4.5,34.6h8.8v3.3H4.5V34.6z M1.3,39.4h14.9v5H1.3V39.4z M9,63   c-1.1,0-2-0.9-2-2c0-1.1,0.9-2,2-2s2,0.9,2,2C11,62.1,10.1,63,9,63z M32.3,63c-1.1,0-2-0.9-2-2c0-1.1,0.9-2,2-2c1.1,0,2,0.9,2,2   C34.3,62.1,33.4,63,32.3,63z M21.1,21.7v-5h22.3v5H21.1z M40.1,23.2v3.3H24.4v-3.3H40.1z M43.5,28v5H21.1v-5H43.5z M40.1,34.5v3.3   H24.4v-3.3H40.1z M43.5,39.3v5H21.1v-5H43.5z M58.1,61c0,1.1-0.9,2-2,2c-1.1,0-2-0.9-2-2c0-1.1,0.9-2,2-2   C57.2,58.9,58.1,59.8,58.1,61z M55.3,57.5c-1.3,0.3-2.4,1.4-2.7,2.7H35.8c-0.3-1.3-1.4-2.4-2.7-2.7V45.8H45v-8h-3.3v-3.3H45v-8   h-3.3v-3.3H45v-8H19.6v8h3.3v3.3h-3.3v8h3.3v3.3h-3.3v8h11.9v11.7c-1.3,0.3-2.4,1.4-2.7,2.7H12.4c-0.3-1.3-1.4-2.4-2.7-2.7V45.9h8   v-8h-2.8v-3.3h2.8v-8H9c-0.8-1.1-1.3-2.5-1.3-3.9c0-3.1,2.2-5.9,5.3-6.5l0.6-0.1l0-0.6c0-0.2,0.5-6,6.2-6c0.7,0,1.3,0.1,1.9,0.3   c-0.2,0.8-0.3,1.6-0.3,2.4h1.5c0-0.9,0.1-1.8,0.3-2.6C24.5,5.1,28.5,2,33.1,2C37.8,2,42,5.3,43,9.9l0.2,0.7l0.7-0.2   c0.5-0.1,2-0.4,2.8-0.4c5.6,0,10.2,4.6,10.2,10.2c0,2.3-0.8,4.5-2.1,6.2h-7.9v8h3.3v3.3h-3.3v8h8.5V57.5z M63.8,44.4H48.3v-5h15.4   V44.4z M60.5,37.9h-8.8v-3.3h8.8V37.9z"/><rect height="1.5" width="1.5" x="58.5" y="29.8"/><rect height="1.5" width="1.5" x="55.2" y="29.8"/><rect height="1.5" width="1.4" x="52" y="29.8"/><rect height="1.5" width="1.4" x="5" y="41.1"/><rect height="1.5" width="1.5" x="11.5" y="41.1"/><rect height="1.5" width="1.5" x="8.2" y="41.1"/><rect height="1.5" width="1.4" x="5" y="29.8"/><rect height="1.5" width="1.5" x="11.5" y="29.8"/><rect height="1.5" width="1.5" x="8.2" y="29.8"/><rect height="1.5" width="1.5" x="36.9" y="18.4"/><rect height="1.5" width="1.5" x="40.2" y="18.4"/><rect height="1.5" width="1.4" x="33.7" y="18.4"/><rect height="1.5" width="6.9" x="23.5" y="18.4"/></g></svg>