<?xml version="1.0" ?><!DOCTYPE svg  PUBLIC '-//W3C//DTD SVG 1.1//EN'  'http://www.w3.org/Graphics/SVG/1.1/DTD/svg11.dtd'><svg enable-background="new 0 0 65 65" id="Layer_1" version="1.1" viewBox="0 0 65 65" xml:space="preserve" xmlns="http://www.w3.org/2000/svg" xmlns:xlink="http://www.w3.org/1999/xlink"><g><path d="M17,10.7c2.4-1.1,5.2-1.2,7.7-0.3c1.2,0.4,2.4,1.1,3.4,1.9l0.5,0.4L36,5.9l-0.6-0.6c-2.2-2-4.7-3.5-7.5-4.5   c-5.2-1.8-11.1-1.4-16,1.1l-0.7,0.4l5.2,8.7L17,10.7z M27.4,2.3c2.4,0.8,4.5,2,6.4,3.6l-5.3,4.9c-1-0.8-2.2-1.4-3.4-1.8   c-1.3-0.4-2.6-0.6-3.9-0.6c-1.5,0-2.9,0.3-4.2,0.8l-3.7-6.2C17.7,1,22.8,0.7,27.4,2.3z"/><path d="M5.3,34.1l7.4-6.8l-0.4-0.5c-2-2.8-2.5-6.4-1.4-9.6c0.7-1.9,1.9-3.7,3.5-4.9l0.5-0.4L9.8,3.1L9.2,3.6   C5.6,6.1,2.9,9.7,1.5,13.9c-2.3,6.7-1,14,3.4,19.6L5.3,34.1z M3.7,28.9l4.5,0.5l-2.8,2.5C4.8,31,4.2,30,3.7,28.9z M9.8,28l-6.7-0.7   c-0.3-0.8-0.6-1.7-0.8-2.5l7.7,0.8c0.2,0.5,0.5,1,0.8,1.4L9.8,28z M9,20l-7.1-0.7c0.1-0.8,0.2-1.6,0.3-2.4l7.1,0.7   C9.1,18.4,9,19.2,9,20z M9,21.5c0.1,0.8,0.2,1.7,0.5,2.5L2,23.3c-0.1-0.8-0.2-1.6-0.2-2.5L9,21.5z M9.8,16.2l-7.2-0.7   c0.1-0.4,0.2-0.7,0.3-1.1c0.2-0.4,0.3-0.9,0.5-1.3l7.6,0.8C10.5,14.6,10.1,15.3,9.8,16.2z M12.1,12.4l-8-0.8   c0.4-0.8,0.9-1.6,1.4-2.3l6.7,0.7l0.9,1.4C12.7,11.8,12.4,12.1,12.1,12.4z M9.4,5.3l1.9,3.1L6.6,7.9C7.4,7,8.4,6.1,9.4,5.3z"/><path d="M30,14.4c1.1,1.5,1.7,3.3,1.9,5.1l0.1,0.6l10.1,0.4l0-0.8c-0.2-4.4-1.7-8.7-4.5-12.1l-0.5-0.6l-7.4,6.8L30,14.4z M36.9,9.3   c2.1,2.9,3.3,6.3,3.6,9.8l-7.2-0.3c-0.3-1.6-0.8-3.2-1.7-4.6L36.9,9.3z"/><path d="M31.8,22.4c-0.1,0.6-0.2,1.1-0.4,1.6c-1.5,4.4-5.6,7.3-10.2,7.3c-1.2,0-2.3-0.2-3.4-0.6c-1.2-0.4-2.4-1.1-3.4-1.9l-0.5-0.4   l-7.4,6.8L7,35.8c2.2,2,4.7,3.5,7.5,4.5c2.2,0.7,4.4,1.1,6.7,1.1c0,0,0,0,0,0c8.9,0,16.9-5.7,19.7-14.2c0.5-1.4,0.8-2.8,1-4.3   l0.1-0.8l-10.1-0.4L31.8,22.4z M33.2,23.3l7.2,0.3c-0.2,1.1-0.4,2.2-0.8,3.2c-2.7,7.9-10,13.1-18.3,13.1h0c-2.1,0-4.2-0.3-6.2-1   c-2.4-0.8-4.5-2-6.4-3.6l5.3-4.9c1,0.8,2.2,1.4,3.4,1.8c1.3,0.4,2.6,0.7,3.9,0.7c5.3,0,9.9-3.3,11.6-8.3   C32.9,24.1,33.1,23.7,33.2,23.3z"/><path d="M56.3,21v44.2h8.4V21H56.3z M63.1,63.7h-5.4V22.5h5.4V63.7z"/><path d="M45.5,65.2h8.4V30.9h-8.4V65.2z M47,32.4h5.4v31.4H47V32.4z"/><path d="M34.8,65.2h8.4V41.6h-8.4V65.2z M36.3,43.1h5.4v20.7h-5.4V43.1z"/><path d="M24,65.2h8.4V52.7H24V65.2z M25.5,54.2h5.4v9.6h-5.4V54.2z"/><path d="M13.2,65.2h8.4V45.5h-8.4V65.2z M14.7,47h5.4v16.7h-5.4V47z"/><path d="M2.5,65.2h8.4V49.5H2.5V65.2z M4,51h5.4v12.8H4V51z"/></g></svg>